<?xml version="1.0" encoding="UTF-8" standalone="no"?>
<svg
   width="24"
   height="24"
   version="1.1"
   id="svg6"
   sodipodi:docname="login.svg"
   inkscape:version="1.1.2 (0a00cf5339, 2022-02-04)"
   xmlns:inkscape="http://www.inkscape.org/namespaces/inkscape"
   xmlns:sodipodi="http://sodipodi.sourceforge.net/DTD/sodipodi-0.dtd"
   xmlns="http://www.w3.org/2000/svg"
   xmlns:svg="http://www.w3.org/2000/svg">
  <defs
     id="defs10" />
  <sodipodi:namedview
     id="namedview8"
     pagecolor="#ffffff"
     bordercolor="#666666"
     borderopacity="1.0"
     inkscape:pageshadow="2"
     inkscape:pageopacity="0.0"
     inkscape:pagecheckerboard="0"
     showgrid="false"
     inkscape:zoom="26.25"
     inkscape:cx="12"
     inkscape:cy="12"
     inkscape:window-width="1920"
     inkscape:window-height="1030"
     inkscape:window-x="0"
     inkscape:window-y="24"
     inkscape:window-maximized="1"
     inkscape:current-layer="svg6" />
  <path
     id="rect833"
     style="fill:#f5f5f5;fill-opacity:1;stroke-width:1.88976;stroke-linecap:round;stroke-linejoin:round;paint-order:stroke markers fill"
     d="M 4.7985351,3.6565826 C 3.7992167,3.6561517 2.7920285,4.6625357 2.7926757,5.6663482 l 0.00586,8.9999998 c 6.416e-4,0.995177 0.9996737,1.996314 1.9980469,1.996094 l 14.0078124,-0.0039 c 0.993744,-2.25e-4 1.993844,-0.996246 1.994141,-1.994147 l 0.002,-8.9999999 c 2.51e-4,-1.0014637 -1.001317,-2.0015216 -2.002,-2.0019531 z m 1,2.0058594 H 17.798535 c 0.554001,0 1,0.4459995 1,1 v 7 c 0,0.554 -0.445999,1 -1,1 H 5.7985351 c -0.5540005,0 -1,-0.446 -1,-1 v -7 c 0,-0.5540005 0.4459995,-1 1,-1 z m 3,12 c -0.5539997,0 -1,0.446 -1,1 0,0.554 0.4460003,1 1,1 h 5.9999999 c 0.554,0 1,-0.446 1,-1 0,-0.554 -0.446,-1 -1,-1 z" />
</svg>
